<?xml version="1.0" encoding="UTF-8" standalone="no"?>
<!-- Created with Inkscape (http://www.inkscape.org/) -->

<svg
   xmlns:dc="http://purl.org/dc/elements/1.1/"
   xmlns:cc="http://creativecommons.org/ns#"
   xmlns:rdf="http://www.w3.org/1999/02/22-rdf-syntax-ns#"
   xmlns:svg="http://www.w3.org/2000/svg"
   xmlns="http://www.w3.org/2000/svg"
   xmlns:sodipodi="http://sodipodi.sourceforge.net/DTD/sodipodi-0.dtd"
   xmlns:inkscape="http://www.inkscape.org/namespaces/inkscape"
   version="1.1"
   id="svg2"
   xml:space="preserve"
   width="128"
   height="128"
   viewBox="0 0 128 128"
   sodipodi:docname="open-match-logo-square.svg"
   inkscape:version="0.92.3 (2405546, 2018-03-11)"><metadata
     id="metadata8"><rdf:RDF><cc:Work
         rdf:about=""><dc:format>image/svg+xml</dc:format><dc:type
           rdf:resource="http://purl.org/dc/dcmitype/StillImage" /><dc:title></dc:title></cc:Work></rdf:RDF></metadata><defs
     id="defs6"><clipPath
       clipPathUnits="userSpaceOnUse"
       id="clipPath18"><path
         d="M 0,230 H 540 V 0 H 0 Z"
         id="path16"
         inkscape:connector-curvature="0" /></clipPath></defs><sodipodi:namedview
     pagecolor="#ffffff"
     bordercolor="#666666"
     borderopacity="1"
     objecttolerance="10"
     gridtolerance="10"
     guidetolerance="10"
     inkscape:pageopacity="0"
     inkscape:pageshadow="2"
     inkscape:window-width="1920"
     inkscape:window-height="1175"
     id="namedview4"
     showgrid="false"
     inkscape:zoom="8"
     inkscape:cx="44.710165"
     inkscape:cy="67.195427"
     inkscape:window-x="1920"
     inkscape:window-y="0"
     inkscape:window-maximized="1"
     inkscape:current-layer="g10" /><g
     id="g10"
     inkscape:groupmode="layer"
     inkscape:label="Open_Match_Logo_RGB"
     transform="matrix(1.3333333,0,0,-1.3333333,0,128.00001)"><g
       id="g12"
       transform="translate(-56.336611,-65.575822)"><g
         id="g14"
         clip-path="url(#clipPath18)"><g
           id="g20"
           transform="translate(171.626,111.0322)" /><g
           id="g24"
           transform="translate(222.0962,111.0322)" /><g
           id="g28"
           transform="translate(254.4951,114.48)" /><g
           id="g32"
           transform="translate(286.2998,96.4087)" /><g
           id="g36"
           transform="translate(326.666,96.4087)" /><g
           id="g40"
           transform="translate(363.7617,111.0913)" /><g
           id="g44"
           transform="translate(404.3711,133.978)" /><g
           id="g48"
           transform="translate(440.6924,100.1538)" /><g
           id="g52"
           transform="translate(448.8369,138.02)" /><g
           id="g56"
           transform="translate(138.8384,111.0938)"><path
             d="m 0,0 c -0.176,9.521 -7.944,17.187 -17.508,17.187 -5.443,0 -10.291,-2.491 -13.498,-6.389 l 0.001,0.01 C -37.652,2.99 -46.545,9.884 -46.545,9.884 L -46.55,9.87 c -2.363,2.049 -5.431,3.303 -8.806,3.303 -7.346,0 -13.306,-5.87 -13.482,-13.173 0.176,-7.303 6.136,-13.173 13.482,-13.173 3.375,0 6.443,1.254 8.806,3.303 l 0.005,-0.014 c 0,0 8.893,6.894 15.54,-0.924 l -0.001,0.01 c 3.207,-3.898 8.055,-6.39 13.498,-6.39 9.564,0 17.332,7.666 17.508,17.188"
             style="fill:#0a1a3f;fill-opacity:1;fill-rule:nonzero;stroke:none"
             id="path58"
             inkscape:connector-curvature="0" /></g><g
           id="g60"
           transform="translate(114.0977,137.6826)"><path
             d="m 0,0 c 0,-8.263 -6.698,-14.961 -14.96,-14.961 -8.263,0 -14.961,6.698 -14.961,14.961 0,8.262 6.698,14.96 14.961,14.96 C -6.698,14.96 0,8.262 0,0"
             style="fill:#2d70de;fill-opacity:1;fill-rule:nonzero;stroke:none"
             id="path62"
             inkscape:connector-curvature="0" /></g><g
           id="g64"
           transform="translate(111.2021,88.9395)"><path
             d="m 0,0 c 0,-6.397 -5.186,-11.583 -11.583,-11.583 -6.396,0 -11.582,5.186 -11.582,11.583 0,6.396 5.186,11.583 11.582,11.583 C -5.186,11.583 0,6.396 0,0"
             style="fill:#2d70de;fill-opacity:1;fill-rule:nonzero;stroke:none"
             id="path66"
             inkscape:connector-curvature="0" /></g></g></g></g></svg>